<?xml version="1.0" encoding="iso-8859-1"?>
<!-- Generator: Adobe Illustrator 19.0.0, SVG Export Plug-In . SVG Version: 6.00 Build 0)  -->
<svg version="1.1" id="Capa_1" xmlns="http://www.w3.org/2000/svg" xmlns:xlink="http://www.w3.org/1999/xlink" x="0px" y="0px"
	 viewBox="0 0 511.999 511.999" style="enable-background:new 0 0 511.999 511.999;" xml:space="preserve">
<g>
	<g>
		<path d="M502,82.031h-44.002c-0.023-5.503-4.489-9.958-9.998-9.958s-9.975,4.455-9.998,9.958H394c-5.523,0-10,4.478-10,10
			c0,5.522,4.477,10,10,10h44v12h-82.537c-0.129-0.146-0.254-0.295-0.393-0.434c-20.356-20.355-47.421-31.566-76.209-31.566h-45.724
			c-28.788,0-55.853,11.211-76.209,31.566c-0.139,0.139-0.263,0.288-0.393,0.434H84H74v-12h44c5.523,0,10-4.478,10-10
			c0-5.522-4.477-10-10-10H73.998c-0.023-5.503-4.489-9.958-9.998-9.958c-5.509,0-9.975,4.455-9.998,9.958H10
			c-5.523,0-10,4.478-10,10c0,5.522,4.477,10,10,10h44v12H44c-5.523,0-10,4.478-10,10v20c0,16.542,13.458,30,30,30s30-13.458,30-30
			v-10h60v33.682c0,12.486,8.125,23.102,19.364,26.859l-44.613,35.347c-2.394,1.896-3.79,4.783-3.79,7.838v20.274
			c0,5.522,4.477,10,10,10s10-4.478,10-10v-15.439l46.273-36.663l9.242,16.9c1.754,3.208,5.119,5.202,8.774,5.202H246v22.003
			c-9.387,3.926-16,13.203-16,23.997c0,14.337,11.664,26,26,26s26-11.663,26-26c0-10.795-6.613-20.071-16-23.997v-22.003h36.75
			c3.655,0,7.02-1.994,8.774-5.202l9.026-16.505l44.41,36.184v15.523c0,5.522,4.477,10,10,10s10-4.478,10-10v-20.274
			c0-3.007-1.353-5.854-3.684-7.753l-43.241-35.232c11.55-3.573,19.964-14.351,19.964-27.059v-33.682h60v10
			c0,16.542,13.458,30,30,30s30-13.458,30-30v-20c0-5.522-4.477-10-10-10h-6h-4v-12h44c5.523,0,10-4.478,10-10
			C511.999,86.508,507.523,82.031,502,82.031z M74,144.031c0,5.514-4.486,10-10,10s-10-4.486-10-10v-10h10h10V144.031z M256,280.031
			c-3.309,0-6-2.691-6-6c0-3.309,2.691-6,6-6s6,2.691,6,6C262,277.339,259.309,280.031,256,280.031z M296.821,208.031h-81.643
			l-6.563-12h94.768L296.821,208.031z M338,167.711c0,4.587-3.732,8.318-8.319,8.318H182.319c-4.587,0-8.319-3.731-8.319-8.318
			V124.94c16.203-14.804,37.048-22.909,59.138-22.909h45.724c22.09,0,42.935,8.105,59.138,22.909V167.711z M458,134.031v10
			c0,5.514-4.486,10-10,10c-5.514,0-10-4.486-10-10v-10H458z"/>
	</g>
</g>
<g>
	<g>
		<path d="M299.979,134.537c-5.523,0-10,4.478-10,10v0.13c0,5.523,4.477,10,10,10s10-4.478,10-10v-0.13
			C309.979,139.016,305.502,134.537,299.979,134.537z"/>
	</g>
</g>
<g>
	<g>
		<path d="M256,134.537c-5.523,0-10,4.478-10,10v0.13c0,5.523,4.477,10,10,10s10-4.478,10-10v-0.13
			C266,139.016,261.523,134.537,256,134.537z"/>
	</g>
</g>
<g>
	<g>
		<path d="M212.021,134.537c-5.523,0-10,4.478-10,10v0.13c0,5.523,4.477,10,10,10s10-4.478,10-10v-0.13
			C222.021,139.016,217.544,134.537,212.021,134.537z"/>
	</g>
</g>
<g>
	<g>
		<path d="M134.96,282.042c-5.523,0-10,4.478-10,10v0.665c0,5.522,4.477,10,10,10s10-4.477,10-10v-0.665
			C144.96,286.521,140.483,282.042,134.96,282.042z"/>
	</g>
</g>
<g>
	<g>
		<path d="M374.96,281.708c-5.523,0-10,4.478-10,10v0.335c0,5.522,4.477,10,10,10s10-4.478,10-10v-0.335
			C384.96,286.185,380.483,281.708,374.96,281.708z"/>
	</g>
</g>
<g>
	<g>
		<path d="M309.405,302.938c-3.905-3.904-10.237-3.904-14.142,0c-10.487,10.488-24.431,16.264-39.262,16.264
			s-28.775-5.775-39.262-16.264c-3.906-3.903-10.237-3.903-14.142,0c-3.905,3.905-3.906,10.237,0,14.143
			c14.265,14.265,33.231,22.121,53.405,22.121s39.138-7.857,53.403-22.121C313.31,313.177,313.31,306.844,309.405,302.938z"/>
	</g>
</g>
<g>
	<g>
		<path d="M345.045,338.581c-3.906-3.904-10.237-3.904-14.142,0c-41.302,41.302-108.504,41.302-149.807,0
			c-3.905-3.905-10.236-3.905-14.141,0c-3.905,3.905-3.905,10.237,0,14.143c24.55,24.55,56.797,36.824,89.045,36.824
			s64.495-12.274,89.045-36.824C348.95,348.818,348.951,342.487,345.045,338.581z"/>
	</g>
</g>
<g>
	<g>
		<path d="M380.687,374.221c-3.906-3.904-10.238-3.904-14.143,0c-60.954,60.955-160.134,60.955-221.088,0
			c-3.905-3.904-10.237-3.904-14.143,0c-3.905,3.905-3.905,10.237,0,14.143C165.69,422.74,210.845,439.927,256,439.927
			c45.155,0,90.31-17.188,124.687-51.563C384.592,384.458,384.592,378.127,380.687,374.221z"/>
	</g>
</g>
<g>
</g>
<g>
</g>
<g>
</g>
<g>
</g>
<g>
</g>
<g>
</g>
<g>
</g>
<g>
</g>
<g>
</g>
<g>
</g>
<g>
</g>
<g>
</g>
<g>
</g>
<g>
</g>
<g>
</g>
</svg>
