<?xml version="1.0" encoding="iso-8859-1"?>
<!-- Generator: Adobe Illustrator 19.0.0, SVG Export Plug-In . SVG Version: 6.00 Build 0)  -->
<svg version="1.1" id="Capa_1" xmlns="http://www.w3.org/2000/svg" xmlns:xlink="http://www.w3.org/1999/xlink" x="0px" y="0px"
	 viewBox="0 0 510.933 510.933" style="enable-background:new 0 0 510.933 510.933;" xml:space="preserve">
<path style="fill:#415A6B;" d="M474.667,382.4V102.933c0-18.133-13.867-32-32-32H69.333c-18.133,0-32,13.867-32,32V382.4H474.667z"
	/>
<rect x="74.667" y="108.267" style="fill:#8AD7F8;" width="362.667" height="236.8"/>
<path style="fill:#E8EAE9;" d="M56.533,440H454.4c32,0,56.533-25.6,56.533-56.533l0,0H0l0,0C0,414.4,25.6,440,56.533,440z"/>
<polygon style="fill:#CED6E0;" points="313.6,406.933 325.333,382.4 186.667,382.4 198.4,406.933 "/>
<rect x="339.24" y="284.848" transform="matrix(-0.7071 0.7071 -0.7071 -0.7071 830.7525 267.1871)" style="fill:#344A5E;" width="41.6" height="41.6"/>
<circle style="fill:#FFFFFF;" cx="282.667" cy="228.8" r="87.467"/>
<path style="fill:#415A6B;" d="M352,299.2c-38.4,38.4-101.333,38.4-139.733,0s-38.4-101.333,0-139.733s101.333-38.4,139.733,0
	S390.4,260.8,352,299.2z M228.267,174.4c-29.867,29.867-29.867,78.933,0,108.8s78.933,29.867,108.8,0
	c29.867-29.867,29.867-78.933,0-108.8C307.2,144.533,258.133,144.533,228.267,174.4z"/>
<path style="fill:#F3705A;" d="M228.267,223.467c0,35.2,54.4,65.067,54.4,65.067s54.4-29.867,54.4-65.067c0-16-12.8-28.8-28.8-28.8
	c-11.733,0-21.333,7.467-25.6,17.067c-4.267-10.667-13.867-17.067-25.6-17.067C241.067,195.733,228.267,208.533,228.267,223.467z"/>
<ellipse transform="matrix(-0.4064 -0.9137 0.9137 -0.4064 245.895 600.4734)" style="fill:#FFFFFF;" cx="318.003" cy="220.361" rx="11.733" ry="6.4"/>
<path style="fill:#FFD15C;" d="M347.733,341.867l42.667,42.667c13.867,13.867,35.2,13.867,49.067,0s13.867-35.2,0-49.067
	L396.8,292.8L347.733,341.867z"/>
<rect x="370.288" y="288.251" transform="matrix(0.7071 0.7071 -0.7071 0.7071 339.1353 -172.9096)" style="fill:#F7B64C;" width="16" height="69.333"/>
<path style="fill:#E8EAE9;" d="M398.933,296l-49.067,49.067c-5.333,5.333-13.867,5.333-19.2,0s-5.333-13.867,0-19.2l49.067-49.067
	c5.333-5.333,13.867-5.333,19.2,0C404.267,282.133,404.267,290.667,398.933,296z"/>
<g>
</g>
<g>
</g>
<g>
</g>
<g>
</g>
<g>
</g>
<g>
</g>
<g>
</g>
<g>
</g>
<g>
</g>
<g>
</g>
<g>
</g>
<g>
</g>
<g>
</g>
<g>
</g>
<g>
</g>
</svg>
